<svg width="25" height="23" viewBox="0 0 25 23" fill="none" xmlns="http://www.w3.org/2000/svg">
<g clip-path="url(#clip0_2061_52363)">
<path d="M8.71808 22.7597C8.9478 22.7597 9.07415 22.6376 9.09713 22.3933C9.19667 21.6301 9.29813 21.0309 9.40151 20.5959C9.50488 20.1608 9.66952 19.8326 9.89542 19.6113C10.1213 19.3899 10.4563 19.222 10.9005 19.1075C11.3446 18.993 11.9572 18.8747 12.7383 18.7527C13.0063 18.7069 13.1403 18.5771 13.1403 18.3634C13.1403 18.1497 13.0216 18.0199 12.7842 17.9741C12.0031 17.8291 11.3867 17.6975 10.9349 17.5792C10.4831 17.4609 10.1405 17.2949 9.9069 17.0812C9.67335 16.8675 9.50488 16.5469 9.40151 16.1195C9.29813 15.6921 9.19667 15.0968 9.09713 14.3336C9.07415 14.0893 8.9478 13.9672 8.71808 13.9672C8.48835 13.9672 8.35817 14.0855 8.32755 14.3221C8.22799 15.1006 8.12462 15.7093 8.01742 16.1481C7.91021 16.5869 7.74366 16.9189 7.51776 17.1441C7.29187 17.3693 6.95302 17.5372 6.50122 17.6479C6.04943 17.7585 5.42917 17.8673 4.64045 17.9741C4.5409 17.9894 4.45667 18.0314 4.38776 18.1001C4.31884 18.1688 4.28438 18.2565 4.28438 18.3634C4.28438 18.5771 4.40307 18.7069 4.64045 18.7527C5.42917 18.8976 6.04943 19.0312 6.50122 19.1534C6.95302 19.2754 7.29187 19.4453 7.51776 19.6629C7.74366 19.8804 7.9083 20.2028 8.01167 20.6303C8.11505 21.0576 8.22034 21.6529 8.32755 22.4162C8.3352 22.5154 8.3754 22.5974 8.44815 22.6624C8.5209 22.7272 8.61087 22.7597 8.71808 22.7597ZM3.2621 12.788C3.41525 12.788 3.50714 12.7002 3.53777 12.5247C3.63732 11.9828 3.72921 11.5534 3.81344 11.2367C3.89767 10.92 4.0202 10.6757 4.181 10.504C4.34181 10.3323 4.58302 10.2006 4.90463 10.109C5.22625 10.0174 5.67805 9.92204 6.26002 9.82282C6.43614 9.79229 6.52421 9.69688 6.52421 9.53661C6.52421 9.37633 6.43614 9.28092 6.26002 9.25039C5.67805 9.15117 5.22625 9.05386 4.90463 8.95845C4.58302 8.86305 4.34181 8.73139 4.181 8.56348C4.0202 8.39557 3.89767 8.15324 3.81344 7.8365C3.72921 7.51976 3.63732 7.08663 3.53777 6.53709C3.50714 6.36919 3.41525 6.28523 3.2621 6.28523C3.10129 6.28523 3.00558 6.36919 2.97495 6.53709C2.87539 7.08663 2.7835 7.51976 2.69927 7.8365C2.61504 8.15324 2.49252 8.39557 2.33171 8.56348C2.1709 8.73139 1.92969 8.86305 1.60808 8.95845C1.28646 9.05386 0.838497 9.15117 0.264184 9.25039C0.0880612 9.28092 0 9.37633 0 9.53661C0 9.69688 0.0880612 9.79229 0.264184 9.82282C0.838497 9.92204 1.28646 10.0174 1.60808 10.109C1.92969 10.2006 2.1709 10.3323 2.33171 10.504C2.49252 10.6757 2.61504 10.92 2.69927 11.2367C2.7835 11.5534 2.87539 11.9828 2.97495 12.5247C2.99026 12.601 3.02089 12.6639 3.06683 12.7135C3.11278 12.7632 3.17787 12.788 3.2621 12.788ZM9.55657 5.46093C9.6791 5.46093 9.75567 5.39224 9.7863 5.25486C9.88585 4.79692 9.972 4.43629 10.0447 4.17298C10.1175 3.90967 10.2209 3.70741 10.3549 3.56621C10.4889 3.42501 10.6899 3.31434 10.9579 3.2342C11.2259 3.15406 11.5973 3.06438 12.0721 2.96517C12.2176 2.94227 12.2903 2.86594 12.2903 2.73619C12.2903 2.60644 12.2176 2.52631 12.0721 2.49578C11.5973 2.39655 11.2259 2.30687 10.9579 2.22673C10.6899 2.1466 10.4889 2.03593 10.3549 1.89473C10.2209 1.75353 10.1175 1.55318 10.0447 1.29369C9.972 1.03418 9.88585 0.675462 9.7863 0.217522C9.75567 0.0725072 9.6791 0 9.55657 0C9.42639 0 9.34599 0.0725072 9.31536 0.217522C9.22347 0.675462 9.13924 1.03418 9.06267 1.29369C8.98609 1.55318 8.8808 1.75353 8.74679 1.89473C8.61278 2.03593 8.41369 2.1466 8.14951 2.22673C7.88532 2.30687 7.51202 2.39655 7.02959 2.49578C6.88411 2.52631 6.81136 2.60644 6.81136 2.73619C6.81136 2.86594 6.88411 2.94227 7.02959 2.96517C7.51202 3.06438 7.88532 3.15406 8.14951 3.2342C8.41369 3.31434 8.61278 3.42501 8.74679 3.56621C8.8808 3.70741 8.98609 3.90967 9.06267 4.17298C9.13924 4.43629 9.22347 4.79692 9.31536 5.25486C9.34599 5.39224 9.42639 5.46093 9.55657 5.46093ZM19.0442 9.50226C19.1974 9.50226 19.2893 9.4183 19.3199 9.25039C19.4194 8.70086 19.5113 8.26773 19.5956 7.95099C19.6798 7.63424 19.8024 7.39192 19.9632 7.22401C20.1239 7.0561 20.3671 6.92444 20.6925 6.82904C21.018 6.73363 21.4678 6.63631 22.0421 6.53709C22.2182 6.50657 22.3063 6.41116 22.3063 6.25088C22.3063 6.0906 22.2182 5.9952 22.0421 5.96467C21.4678 5.86545 21.018 5.77005 20.6925 5.67846C20.3671 5.58687 20.1239 5.45521 19.9632 5.28349C19.8024 5.11176 19.6798 4.86752 19.5956 4.55079C19.5113 4.23404 19.4194 3.80472 19.3199 3.26282C19.2893 3.08728 19.1974 2.9995 19.0442 2.9995C18.8834 2.9995 18.7877 3.08728 18.7571 3.26282C18.6575 3.80472 18.5656 4.23404 18.4814 4.55079C18.3972 4.86752 18.2747 5.11176 18.1139 5.28349C17.953 5.45521 17.7118 5.58687 17.3903 5.67846C17.0686 5.77005 16.6206 5.86545 16.0463 5.96467C15.9697 5.97993 15.9065 6.01237 15.8567 6.06199C15.807 6.1116 15.7822 6.17456 15.7822 6.25088C15.7822 6.41116 15.8702 6.50657 16.0463 6.53709C16.6206 6.63631 17.0686 6.73363 17.3903 6.82904C17.7118 6.92444 17.953 7.0561 18.1139 7.22401C18.2747 7.39192 18.3972 7.63424 18.4814 7.95099C18.5656 8.26773 18.6575 8.70086 18.7571 9.25039C18.7877 9.4183 18.8834 9.50226 19.0442 9.50226ZM22.8692 22.5764C23.1142 22.8207 23.4148 22.9428 23.7709 22.9428C24.1269 22.9428 24.4198 22.8207 24.6495 22.5764C24.8869 22.3245 25.0037 22.0288 24.9999 21.6892C24.996 21.3496 24.8792 21.0576 24.6495 20.8134L13.7261 9.89151C13.4887 9.64727 13.192 9.52516 12.8359 9.52516C12.4798 9.52516 12.1869 9.64727 11.9572 9.89151C11.7198 10.1434 11.6011 10.441 11.6011 10.7845C11.6011 11.1279 11.7198 11.4218 11.9572 11.666L22.8692 22.5764ZM16.1956 14.7113L12.8302 11.3455C12.723 11.2462 12.6598 11.1413 12.6407 11.0306C12.6215 10.92 12.6617 10.815 12.7612 10.7158C12.8454 10.6242 12.945 10.588 13.0599 10.607C13.1747 10.6261 13.2858 10.6891 13.393 10.7959L16.7699 14.1618L16.1956 14.7113Z" fill="black" fill-opacity="0.85"/>
</g>
<defs>
<clipPath id="clip0_2061_52363">
<rect width="25" height="23" fill="white"/>
</clipPath>
</defs>
</svg>
