<svg width="14" height="23" viewBox="0 0 14 23" fill="none" xmlns="http://www.w3.org/2000/svg">
<path d="M2.96343 22.9782H11.0366C11.93 22.9782 12.6473 22.7195 13.1884 22.2022C13.7295 21.6848 14 21.0028 14 20.1562V2.82208C14 1.97545 13.7295 1.29345 13.1884 0.776072C12.6473 0.258691 11.93 0 11.0366 0H2.96343C2.0773 0 1.36187 0.258691 0.817123 0.776072C0.272374 1.29345 0 1.97545 0 2.82208V20.1562C0 21.0028 0.272374 21.6848 0.817123 22.2022C1.36187 22.7195 2.0773 22.9782 2.96343 22.9782ZM3.19223 21.2308C2.72738 21.2308 2.37147 21.1132 2.12452 20.878C1.87757 20.6428 1.75409 20.3081 1.75409 19.874V3.10429C1.75409 2.67012 1.87757 2.33545 2.12452 2.10028C2.37147 1.86511 2.72738 1.74752 3.19223 1.74752H4.58678C4.7611 1.74752 4.84826 1.83074 4.84826 1.99717V2.24681C4.84826 2.47113 4.91726 2.65384 5.05526 2.79495C5.19327 2.93605 5.37485 3.0066 5.60001 3.0066H8.41091C8.64334 3.0066 8.82674 2.93605 8.96111 2.79495C9.09548 2.65384 9.16266 2.47113 9.16266 2.24681V1.99717C9.16266 1.83074 9.24983 1.74752 9.42415 1.74752H10.8187C11.2763 1.74752 11.6285 1.86511 11.8755 2.10028C12.1225 2.33545 12.246 2.67012 12.246 3.10429V19.874C12.246 20.3081 12.1225 20.6428 11.8755 20.878C11.6285 21.1132 11.2763 21.2308 10.8187 21.2308H3.19223ZM4.69573 20.4384H9.3261C9.47136 20.4384 9.5912 20.3914 9.68562 20.2973C9.78004 20.2032 9.82725 20.0802 9.82725 19.9282C9.82725 19.7763 9.78004 19.655 9.68562 19.5646C9.5912 19.4742 9.47136 19.429 9.3261 19.429H4.69573C4.55046 19.429 4.4288 19.4742 4.33075 19.5646C4.2327 19.655 4.18367 19.7763 4.18367 19.9282C4.18367 20.0802 4.2327 20.2032 4.33075 20.2973C4.4288 20.3914 4.55046 20.4384 4.69573 20.4384Z" fill="black" fill-opacity="0.85"/>
</svg>
