<svg width="23" height="23" viewBox="0 0 23 23" fill="none" xmlns="http://www.w3.org/2000/svg">
<g clip-path="url(#clip0_2061_52370)">
<path d="M6.31337 17.9697L16.6867 19.7962C17.2952 19.9047 17.815 19.8569 18.246 19.6529C18.677 19.4489 19.0082 19.1141 19.2396 18.6487C19.471 18.1833 19.5867 17.6095 19.5867 16.9273V5.94845C19.5867 5.228 19.4757 4.63507 19.2539 4.16965C19.032 3.70423 18.7071 3.37748 18.2793 3.18941C17.8514 3.00132 17.3205 2.96147 16.6867 3.06986L6.31337 4.90604C5.3689 5.0718 4.64945 5.39058 4.15503 5.86238C3.66061 6.33417 3.4134 6.97173 3.4134 7.77506V15.0911C3.4134 15.8881 3.66061 16.524 4.15503 16.999C4.64945 17.4739 5.3689 17.7975 6.31337 17.9697ZM6.2373 16.5256C5.78725 16.4491 5.44338 16.2945 5.20567 16.0618C4.96797 15.8291 4.84912 15.5119 4.84912 15.1102V7.75593C4.84912 7.35427 4.96797 7.03709 5.20567 6.80437C5.44338 6.57167 5.78725 6.41706 6.2373 6.34055L16.7627 4.51394C17.2128 4.43743 17.5567 4.5219 17.7944 4.76736C18.0321 5.01282 18.1509 5.40015 18.1509 5.92932V16.9464C18.1509 17.4501 18.0289 17.8294 17.7849 18.0844C17.5408 18.3394 17.2001 18.4319 16.7627 18.3618L6.2373 16.5256ZM11.5048 22.8661C11.7203 22.8661 11.893 22.7992 12.0229 22.6653C12.1529 22.5314 12.2179 22.3466 12.2179 22.1106V0.765074C12.2179 0.5228 12.1529 0.33472 12.0229 0.200832C11.893 0.0669439 11.7203 0 11.5048 0C11.2766 0 11.0991 0.0669439 10.9723 0.200832C10.8455 0.33472 10.7821 0.5228 10.7821 0.765074V22.1106C10.7821 22.3466 10.8455 22.5314 10.9723 22.6653C11.0991 22.7992 11.2766 22.8661 11.5048 22.8661ZM0.760646 12.1551H22.2394C22.4803 12.1551 22.6673 12.0897 22.8004 11.959C22.9335 11.8283 23 11.6546 23 11.4379C23 11.2083 22.9335 11.0298 22.8004 10.9023C22.6673 10.7748 22.4803 10.711 22.2394 10.711H0.760646C0.526114 10.711 0.340706 10.7748 0.204424 10.9023C0.0681413 11.0298 0 11.2083 0 11.4379C0 11.6546 0.0681413 11.8283 0.204424 11.959C0.340706 12.0897 0.526114 12.1551 0.760646 12.1551Z" fill="black" fill-opacity="0.85"/>
</g>
<defs>
<clipPath id="clip0_2061_52370">
<rect width="23" height="23" fill="white"/>
</clipPath>
</defs>
</svg>
