<svg width="26" height="23" viewBox="0 0 26 23" fill="none" xmlns="http://www.w3.org/2000/svg">
<path d="M13 5.02031C11.6491 3.32254 9.5668 1.62477 4.40606 1.50018C4.06709 1.49201 3.79065 1.7639 3.79065 2.09874C3.79065 4.58263 3.79065 13.9863 3.79065 16.7674C3.79065 17.1022 4.06711 17.3652 4.406 17.3761C9.56679 17.5427 11.6491 19.8022 13 21.5M13 5.02031C14.3508 3.32254 16.4331 1.62477 21.5938 1.50018C21.9329 1.49201 22.2093 1.75779 22.2093 2.09262C22.2093 4.8692 22.2093 13.9899 22.2093 16.7666C22.2093 17.1013 21.9329 17.3652 21.5939 17.3761C16.4332 17.5427 14.3508 19.8022 13 21.5M13 5.02031V21.5" stroke="#8490A0" stroke-width="1.8" stroke-linejoin="round"/>
<path d="M21.6824 3.72168H24.4C24.7313 3.72168 25 3.987 25 4.31427V19.7679C25 20.2474 24.428 20.566 23.9842 20.3713C23.0301 19.9526 21.4378 19.441 19.3529 19.441C15.8235 19.441 13 21.4995 13 21.4995C13 21.4995 10.1765 19.441 6.64706 19.441C4.56214 19.441 2.96987 19.9526 2.01576 20.3713C1.57202 20.566 1 20.2474 1 19.7679V4.31427C1 3.987 1.26863 3.72168 1.6 3.72168H4.31765" stroke="#8490A0" stroke-width="1.8" stroke-linejoin="round"/>
</svg>
