<svg width="26" height="22" viewBox="0 0 26 22" fill="none" xmlns="http://www.w3.org/2000/svg">
<path d="M13 4.52031C11.6491 2.82254 9.5668 1.12477 4.40606 1.00018C4.06709 0.992011 3.79065 1.2639 3.79065 1.59874C3.79065 4.08263 3.79065 13.4863 3.79065 16.2674C3.79065 16.6022 4.06711 16.8652 4.406 16.8761C9.56679 17.0427 11.6491 19.3022 13 21M13 4.52031C14.3508 2.82254 16.4331 1.12477 21.5938 1.00018C21.9329 0.992011 22.2093 1.25779 22.2093 1.59262C22.2093 4.3692 22.2093 13.4899 22.2093 16.2666C22.2093 16.6013 21.9329 16.8652 21.5939 16.8761C16.4332 17.0427 14.3508 19.3022 13 21M13 4.52031V21" stroke="#3AA2E6" stroke-width="1.8" stroke-linejoin="round"/>
<path d="M21.6824 3.22168H24.4C24.7313 3.22168 25 3.487 25 3.81427V19.2679C25 19.7474 24.428 20.066 23.9842 19.8713C23.0301 19.4526 21.4378 18.941 19.3529 18.941C15.8235 18.941 13 20.9995 13 20.9995C13 20.9995 10.1765 18.941 6.64706 18.941C4.56214 18.941 2.96987 19.4526 2.01576 19.8713C1.57202 20.066 1 19.7474 1 19.2679V3.81427C1 3.487 1.26863 3.22168 1.6 3.22168H4.31765" stroke="#3AA2E6" stroke-width="1.8" stroke-linejoin="round"/>
</svg>
