<svg width="20" height="21" viewBox="0 0 20 21" fill="none" xmlns="http://www.w3.org/2000/svg">
<g clip-path="url(#clip0_1017_45445)">
<path d="M5.58077 20.4998C5.80461 20.4998 6.0103 20.4391 6.19783 20.3178C6.38537 20.1964 6.61526 20.0143 6.88749 19.7715L10.0181 16.9768H15.844C16.7454 16.9768 17.5046 16.8145 18.1217 16.4898C18.7387 16.1651 19.206 15.6933 19.5236 15.0743C19.8412 14.4552 20 13.6996 20 12.8075V5.83436C20 4.94223 19.8412 4.18666 19.5236 3.56764C19.206 2.94861 18.7387 2.47675 18.1217 2.15207C17.5046 1.82738 16.7454 1.66504 15.844 1.66504H4.15609C3.2547 1.66504 2.49547 1.82738 1.8784 2.15207C1.26134 2.47675 0.794012 2.94861 0.476407 3.56764C0.158802 4.18666 0 4.94223 0 5.83436V12.8075C0 13.6996 0.158802 14.4552 0.476407 15.0743C0.794012 15.6933 1.26134 16.1651 1.8784 16.4898C2.49547 16.8145 3.2547 16.9768 4.15609 16.9768H4.59166V19.3436C4.59166 19.6956 4.67787 19.9763 4.85028 20.1858C5.0227 20.3951 5.26619 20.4998 5.58077 20.4998ZM5.95282 18.8339V16.1939C5.95282 15.9451 5.9014 15.7691 5.79855 15.6659C5.69571 15.5627 5.52028 15.5112 5.27224 15.5112H4.15609C3.23655 15.5112 2.55747 15.2821 2.11888 14.8239C1.68028 14.3657 1.46099 13.6905 1.46099 12.7984V5.83436C1.46099 4.94831 1.68028 4.27618 2.11888 3.81797C2.55747 3.35978 3.23655 3.13068 4.15609 3.13068H15.844C16.7575 3.13068 17.435 3.35978 17.8766 3.81797C18.3183 4.27618 18.5391 4.94831 18.5391 5.83436V12.7984C18.5391 13.6905 18.3183 14.3657 17.8766 14.8239C17.435 15.2821 16.7575 15.5112 15.844 15.5112H9.96376C9.70965 15.5112 9.50395 15.5385 9.34667 15.5931C9.18937 15.6477 9.02603 15.763 8.85664 15.939L5.95282 18.8339Z" fill="#8390A0" stroke="#8490A0" stroke-width="0.2"/>
</g>
<defs>
<clipPath id="clip0_1017_45445">
<rect width="20" height="20" fill="white" transform="translate(0 0.5)"/>
</clipPath>
</defs>
</svg>
