<svg width="22" height="21" viewBox="0 0 22 21" fill="none" xmlns="http://www.w3.org/2000/svg">
<path d="M6.58077 19.9998C6.80461 19.9998 7.0103 19.9391 7.19783 19.8178C7.38537 19.6964 7.61526 19.5143 7.88749 19.2715L11.0181 16.4768H16.844C17.7454 16.4768 18.5046 16.3145 19.1217 15.9898C19.7387 15.6651 20.206 15.1933 20.5236 14.5743C20.8412 13.9552 21 13.1996 21 12.3075V5.33436C21 4.44223 20.8412 3.68666 20.5236 3.06764C20.206 2.44861 19.7387 1.97675 19.1217 1.65207C18.5046 1.32738 17.7454 1.16504 16.844 1.16504H5.15609C4.2547 1.16504 3.49547 1.32738 2.8784 1.65207C2.26134 1.97675 1.79401 2.44861 1.47641 3.06764C1.1588 3.68666 1 4.44223 1 5.33436V12.3075C1 13.1996 1.1588 13.9552 1.47641 14.5743C1.79401 15.1933 2.26134 15.6651 2.8784 15.9898C3.49547 16.3145 4.2547 16.4768 5.15609 16.4768H5.59166V18.8436C5.59166 19.1956 5.67787 19.4763 5.85028 19.6858C6.0227 19.8951 6.26619 19.9998 6.58077 19.9998ZM6.95282 18.3339V15.6939C6.95282 15.4451 6.9014 15.2691 6.79855 15.1659C6.69571 15.0627 6.52028 15.0112 6.27224 15.0112H5.15609C4.23655 15.0112 3.55747 14.7821 3.11888 14.3239C2.68028 13.8657 2.46099 13.1905 2.46099 12.2984V5.33436C2.46099 4.44831 2.68028 3.77618 3.11888 3.31797C3.55747 2.85978 4.23655 2.63068 5.15609 2.63068H16.844C17.7575 2.63068 18.435 2.85978 18.8766 3.31797C19.3183 3.77618 19.5391 4.44831 19.5391 5.33436V12.2984C19.5391 13.1905 19.3183 13.8657 18.8766 14.3239C18.435 14.7821 17.7575 15.0112 16.844 15.0112H10.9638C10.7097 15.0112 10.504 15.0385 10.3467 15.0931C10.1894 15.1477 10.026 15.263 9.85664 15.439L6.95282 18.3339Z" fill="#3AA2E6" stroke="#3AA2E6" stroke-width="0.2"/>
</svg>
