<svg width="26" height="23" viewBox="0 0 26 23" fill="none" xmlns="http://www.w3.org/2000/svg">
<path d="M2.50839 19.0842H23.4808C24.266 19.0842 24.8822 18.8581 25.3294 18.4058C25.7765 17.9536 26 17.3303 26 16.5361V3.30964C26 2.51539 25.7765 1.89397 25.3294 1.44537C24.8822 0.996763 24.266 0.772461 23.4808 0.772461H2.50839C1.73043 0.772461 1.11787 0.996763 0.670723 1.44537C0.223574 1.89397 0 2.51539 0 3.30964V16.5361C0 17.3303 0.223574 17.9536 0.670723 18.4058C1.11787 18.8581 1.73043 19.0842 2.50839 19.0842ZM2.54111 17.3083C2.30118 17.3083 2.11032 17.2365 1.96855 17.0931C1.82677 16.9497 1.75588 16.7566 1.75588 16.5139V3.34272C1.75588 3.09268 1.82677 2.8978 1.96855 2.75808C2.11032 2.61835 2.30118 2.54848 2.54111 2.54848H23.459C23.6989 2.54848 23.8897 2.61835 24.0316 2.75808C24.1733 2.8978 24.2442 3.09268 24.2442 3.34272V16.5139C24.2442 16.7566 24.1733 16.9497 24.0316 17.0931C23.8897 17.2365 23.6989 17.3083 23.459 17.3083H2.54111ZM9.55371 21.7097H16.4464V18.9409H9.55371V21.7097ZM9.48827 23.0003H16.5118C16.7517 23.0003 16.9571 22.9139 17.128 22.741C17.2988 22.5682 17.3843 22.3568 17.3843 22.1068C17.3843 21.8568 17.2988 21.6453 17.128 21.4725C16.9571 21.2997 16.7517 21.2133 16.5118 21.2133H9.48827C9.24834 21.2133 9.04113 21.2997 8.86663 21.4725C8.69213 21.6453 8.60489 21.8568 8.60489 22.1068C8.60489 22.3568 8.69213 22.5682 8.86663 22.741C9.04113 22.9139 9.24834 23.0003 9.48827 23.0003ZM11.159 13.6757H14.854C15.4458 13.6757 15.7417 13.3602 15.7417 12.7293V9.85353C15.7417 9.37626 15.5617 9.07695 15.2018 8.95562V8.2033C15.2018 7.45908 14.9999 6.85643 14.596 6.39533C14.1921 5.93423 13.6623 5.70369 13.0065 5.70369C12.3507 5.70369 11.8209 5.93423 11.417 6.39533C11.0131 6.85643 10.8111 7.45908 10.8111 8.2033V8.96775C10.4512 9.081 10.2713 9.37626 10.2713 9.85353V12.7293C10.2713 13.3602 10.5672 13.6757 11.159 13.6757ZM11.8908 8.91921V8.10623C11.8908 7.70176 11.9928 7.37819 12.1967 7.1355C12.4006 6.89282 12.6705 6.77148 13.0065 6.77148C13.3424 6.77148 13.6123 6.89282 13.8163 7.1355C14.0202 7.37819 14.1221 7.70176 14.1221 8.10623V8.91921H11.8908Z" fill="black" fill-opacity="0.85"/>
</svg>
