<svg width="22" height="23" viewBox="0 0 22 23" fill="none" xmlns="http://www.w3.org/2000/svg">
<g clip-path="url(#clip0_2061_52351)">
<path d="M4.12981 18.4072C4.86966 19.1424 5.64685 19.7573 6.46138 20.2521C7.27592 20.7468 8.07979 21.1426 8.87298 21.4395C9.66618 21.7364 10.4043 21.9608 11.0872 22.1127C11.7701 22.2647 12.3463 22.3619 12.8158 22.4043C13.0933 22.4325 13.3085 22.3795 13.4614 22.2453C13.6144 22.1109 13.7015 21.9554 13.7229 21.7787C13.7442 21.595 13.6944 21.4165 13.5735 21.2433C13.4526 21.0702 13.2605 20.9659 12.9972 20.9306C12.5704 20.874 12.0476 20.7751 11.4287 20.6337C10.8097 20.4923 10.141 20.2891 9.42253 20.0241C8.70403 19.7591 7.9802 19.4092 7.25102 18.9745C6.52185 18.5398 5.83714 18.0008 5.1969 17.3576C4.15116 16.3186 3.32239 15.1754 2.7106 13.9279C2.09881 12.6803 1.71821 11.4169 1.56882 10.1376C1.41943 8.85828 1.51369 7.64434 1.8516 6.49578C2.18951 5.34721 2.7853 4.34884 3.63896 3.50067C4.329 2.81507 5.11864 2.31146 6.00787 1.98987C6.89711 1.66827 7.82903 1.50394 8.80363 1.49687C9.77823 1.4898 10.7493 1.61349 11.7168 1.86794C12.6843 2.12239 13.5913 2.47579 14.4378 2.92815L15.5476 1.85734C14.5089 1.24242 13.4063 0.774156 12.2397 0.452558C11.073 0.13096 9.9045 -0.0192369 8.73426 0.00196741C7.56404 0.0231717 6.44894 0.23168 5.38897 0.627493C4.329 1.02331 3.38997 1.62763 2.57188 2.44046C1.79647 3.21088 1.19535 4.09969 0.768513 5.10689C0.341681 6.1141 0.092696 7.18491 0.0215572 8.31934C-0.0495815 9.45377 0.0553479 10.6094 0.336345 11.7862C0.617344 12.9631 1.07441 14.117 1.70755 15.2479C2.34068 16.3787 3.1481 17.4319 4.12981 18.4072ZM8.01398 15.2372C8.71114 15.9299 9.47944 16.5307 10.3189 17.0396C11.1583 17.5485 12.0262 17.9461 12.9226 18.2323C13.8189 18.5186 14.7099 18.6741 15.5956 18.6988C16.4813 18.7236 17.3225 18.5964 18.1192 18.3171C18.916 18.038 19.6274 17.5874 20.2534 16.9654C20.8937 16.3222 21.3561 15.5747 21.6406 14.723C21.9251 13.8713 22.0408 12.956 21.9874 11.9771C21.934 10.9982 21.7188 9.99625 21.3418 8.97137C20.9648 7.9465 20.4313 6.94637 19.7412 5.97097L18.6528 7.05238C19.3784 8.11967 19.8995 9.20462 20.2161 10.3072C20.5326 11.4098 20.6126 12.4471 20.4561 13.419C20.2997 14.3908 19.8764 15.2196 19.1863 15.9051C18.5603 16.5271 17.8471 16.9336 17.0468 17.1244C16.2465 17.3153 15.4124 17.3277 14.5445 17.1615C13.6766 16.9954 12.8211 16.6844 11.9782 16.2285C11.1352 15.7726 10.358 15.209 9.64662 14.5375L8.01398 15.2372ZM9.41186 13.6575L18.9942 4.1474L17.4043 2.57829L7.83259 12.0778L6.95757 14.1028C6.90778 14.2088 6.92735 14.3078 7.01627 14.3996C7.10519 14.4915 7.20657 14.5163 7.32039 14.4739L9.41186 13.6575ZM19.7732 3.38405L20.6269 2.53588C20.8332 2.3309 20.9381 2.09765 20.9416 1.83614C20.9452 1.57462 20.8438 1.34844 20.6375 1.15761L20.3601 0.903148C20.1751 0.733514 19.9564 0.650464 19.7038 0.653998C19.4513 0.657533 19.229 0.754719 19.037 0.945557L18.1939 1.80433L19.7732 3.38405Z" fill="black" fill-opacity="0.85"/>
</g>
<defs>
<clipPath id="clip0_2061_52351">
<rect width="22" height="23" fill="white"/>
</clipPath>
</defs>
</svg>
