<svg width="22" height="23" viewBox="0 0 22 23" fill="none" xmlns="http://www.w3.org/2000/svg">
<g clip-path="url(#clip0_2061_52359)">
<path d="M10.996 14.227C11.3412 14.2323 11.6932 14.19 12.0519 14.1C12.4106 14.01 12.8057 13.8697 13.2373 13.6792L21.2071 10.1065C21.4714 9.9901 21.6696 9.82471 21.8018 9.61035C21.9339 9.396 22 9.16972 22 8.93152C22 8.69862 21.9339 8.475 21.8018 8.26065C21.6696 8.0463 21.4714 7.88091 21.2071 7.76447L13.2373 4.19181C12.8057 4.00126 12.4106 3.861 12.0519 3.77102C11.6932 3.68105 11.3412 3.63871 10.996 3.644C10.6508 3.63871 10.2988 3.68105 9.94009 3.77102C9.58139 3.861 9.18625 4.00126 8.7547 4.19181L0.792939 7.76447C0.528627 7.88091 0.330392 8.0463 0.198235 8.26065C0.0660784 8.475 0 8.69862 0 8.93152C0 9.16972 0.0660784 9.396 0.198235 9.61035C0.330392 9.82471 0.528627 9.9901 0.792939 10.1065L8.7547 13.6792C9.18625 13.8697 9.58139 14.01 9.94009 14.1C10.2988 14.19 10.6508 14.2323 10.996 14.227ZM10.996 12.9726C10.7263 12.9726 10.4539 12.9369 10.1788 12.8654C9.90366 12.794 9.59348 12.6815 9.24826 12.5281L1.79625 9.20151C1.656 9.13799 1.58588 9.04799 1.58588 8.93152C1.58588 8.82035 1.656 8.73304 1.79625 8.66957L9.24826 5.343C9.59348 5.1895 9.90366 5.07703 10.1788 5.00558C10.4539 4.93413 10.7263 4.8984 10.996 4.8984C11.2657 4.8984 11.5394 4.93413 11.8172 5.00558C12.095 5.07703 12.4065 5.1895 12.7517 5.343L20.2038 8.66957C20.3441 8.73304 20.4142 8.82035 20.4142 8.93152C20.4142 9.04799 20.3441 9.13799 20.2038 9.20151L12.7517 12.5281C12.4065 12.6815 12.095 12.794 11.8172 12.8654C11.5394 12.9369 11.2657 12.9726 10.996 12.9726ZM3.15557 14.9019C3.15557 15.4946 3.33898 16.0557 3.70578 16.585C4.07258 17.1143 4.59986 17.5814 5.28762 17.9862C5.97537 18.3912 6.80067 18.7087 7.76353 18.939C8.72639 19.1692 9.80388 19.2843 10.996 19.2843C12.1881 19.2843 13.2669 19.1692 14.2324 18.939C15.198 18.7087 16.0233 18.3912 16.7084 17.9862C17.3934 17.5814 17.9207 17.1143 18.2902 16.585C18.6597 16.0557 18.8444 15.4946 18.8444 14.9019V10.7099H17.5418V14.9019C17.5418 15.3147 17.388 15.7117 17.0805 16.0927C16.7731 16.4738 16.3335 16.8139 15.7617 17.1129C15.1899 17.412 14.5022 17.6488 13.6984 17.8235C12.8947 17.9982 11.9939 18.0855 10.996 18.0855C10.0034 18.0855 9.10395 17.9982 8.29751 17.8235C7.49111 17.6488 6.80202 17.412 6.23024 17.1129C5.65846 16.8139 5.22019 16.4738 4.91542 16.0927C4.61065 15.7117 4.45826 15.3147 4.45826 14.9019V10.7099H3.15557V14.9019ZM11.0283 9.83661C11.3196 9.83661 11.5961 9.79691 11.8577 9.7175C12.1193 9.6381 12.3324 9.53093 12.4969 9.39597C12.6614 9.26102 12.7437 9.1062 12.7437 8.93152C12.7437 8.76215 12.6614 8.61131 12.4969 8.47901C12.3324 8.34666 12.1193 8.24211 11.8577 8.16536C11.5961 8.08864 11.3196 8.05028 11.0283 8.05028C10.7424 8.05028 10.4674 8.08864 10.2031 8.16536C9.93871 8.24211 9.72293 8.34666 9.55573 8.47901C9.38853 8.61131 9.30493 8.76215 9.30493 8.93152C9.30493 9.1062 9.38853 9.26102 9.55573 9.39597C9.72293 9.53093 9.93871 9.6381 10.2031 9.7175C10.4674 9.79691 10.7424 9.83661 11.0283 9.83661ZM6.10887 11.9325L10.907 9.43963L10.462 8.62193L5.05702 11.3848L6.10887 11.9325ZM5.05702 19.721H6.10887V11.9325L5.05702 11.4244V19.721ZM4.41781 19.8797V21.9678C4.41781 22.2801 4.51355 22.5302 4.70504 22.718C4.89654 22.9059 5.15141 22.9999 5.46966 22.9999H5.68812C6.00638 22.9999 6.26126 22.9059 6.45275 22.718C6.64424 22.5302 6.73999 22.2801 6.73999 21.9678V19.8797C6.73999 19.5675 6.64424 19.3174 6.45275 19.1295C6.26126 18.9416 6.00638 18.8477 5.68812 18.8477H5.46966C5.15141 18.8477 4.89654 18.9416 4.70504 19.1295C4.51355 19.3174 4.41781 19.5675 4.41781 19.8797Z" fill="black" fill-opacity="0.85"/>
</g>
<defs>
<clipPath id="clip0_2061_52359">
<rect width="22" height="23" fill="white"/>
</clipPath>
</defs>
</svg>
