<svg width="31" height="28" viewBox="0 0 31 28" fill="none" xmlns="http://www.w3.org/2000/svg">
<path d="M11.8741 24.6435H19.126V15.6598C19.126 15.38 19.038 15.1538 18.862 14.9811C18.6861 14.8083 18.4556 14.7219 18.1708 14.7219H12.8419C12.5486 14.7219 12.314 14.8083 12.1381 14.9811C11.9621 15.1538 11.8741 15.38 11.8741 15.6598V24.6435ZM6.96 25.9145H23.9646C24.8611 25.9145 25.5566 25.6759 26.0509 25.1988C26.5453 24.7216 26.7925 24.0511 26.7925 23.1873V9.55134L24.769 8.19393V22.6813C24.769 23.0844 24.6643 23.3929 24.4548 23.6068C24.2453 23.8207 23.9395 23.9277 23.5373 23.9277H7.38732C6.98514 23.9277 6.67722 23.8207 6.46357 23.6068C6.24991 23.3929 6.14308 23.0844 6.14308 22.6813V8.20626L4.11961 9.55134V23.1873C4.11961 24.0511 4.36888 24.7216 4.86741 25.1988C5.36595 25.6759 6.06348 25.9145 6.96 25.9145ZM0.5 12.1798C0.5 12.4349 0.596355 12.6632 0.789066 12.8647C0.981777 13.0663 1.24571 13.167 1.58086 13.167C1.75681 13.167 1.9181 13.1259 2.06473 13.0437C2.21136 12.9614 2.3517 12.8709 2.48576 12.7721L15.0665 2.40635C15.2089 2.28294 15.3576 2.22124 15.5125 2.22124C15.6676 2.22124 15.8163 2.28294 15.9587 2.40635L28.5394 12.7721C28.6651 12.8709 28.8013 12.9614 28.9479 13.0437C29.0945 13.1259 29.2558 13.167 29.4318 13.167C29.7251 13.167 29.9764 13.0827 30.1859 12.914C30.3953 12.7454 30.5 12.513 30.5 12.2168C30.5 11.8713 30.3701 11.5916 30.1104 11.3777L17.0271 0.579991C16.5578 0.19333 16.053 0 15.5125 0C14.9722 0 14.4674 0.19333 13.9982 0.579991L0.902179 11.3777C0.63406 11.5916 0.5 11.859 0.5 12.1798ZM23.6379 6.61438L26.7925 9.2305V3.52931C26.7925 3.25782 26.7108 3.04187 26.5474 2.88144C26.384 2.72102 26.1641 2.64081 25.8876 2.64081H24.5427C24.2746 2.64081 24.0568 2.72102 23.8892 2.88144C23.7216 3.04187 23.6379 3.25782 23.6379 3.52931V6.61438Z" fill="#3AA2E6"/>
</svg>
