<svg width="114" height="46" viewBox="0 0 114 46" fill="none" xmlns="http://www.w3.org/2000/svg">
<path d="M5.04 17.68C4.152 17.68 3.408 17.404 2.808 16.852C2.232 16.276 1.944 15.568 1.944 14.728C1.944 13.888 2.232 13.192 2.808 12.64C3.408 12.064 4.152 11.776 5.04 11.776C5.928 11.776 6.66 12.064 7.236 12.64C7.836 13.192 8.136 13.888 8.136 14.728C8.136 15.568 7.836 16.276 7.236 16.852C6.66 17.404 5.928 17.68 5.04 17.68ZM7.524 20.056V40H2.484V20.056H7.524Z" fill="#186BE7"/>
<path d="M17.5435 36.004H25.8235V40H12.5035V14.872H17.5435V36.004ZM47.567 29.596C47.567 30.316 47.519 30.964 47.423 31.54H32.843C32.963 32.98 33.467 34.108 34.355 34.924C35.243 35.74 36.335 36.148 37.631 36.148C39.503 36.148 40.835 35.344 41.627 33.736H47.063C46.487 35.656 45.383 37.24 43.751 38.488C42.119 39.712 40.115 40.324 37.739 40.324C35.819 40.324 34.091 39.904 32.555 39.064C31.043 38.2 29.855 36.988 28.991 35.428C28.151 33.868 27.731 32.068 27.731 30.028C27.731 27.964 28.151 26.152 28.991 24.592C29.831 23.032 31.007 21.832 32.519 20.992C34.031 20.152 35.771 19.732 37.739 19.732C39.635 19.732 41.327 20.14 42.815 20.956C44.327 21.772 45.491 22.936 46.307 24.448C47.147 25.936 47.567 27.652 47.567 29.596ZM42.347 28.156C42.323 26.86 41.855 25.828 40.943 25.06C40.031 24.268 38.915 23.872 37.595 23.872C36.347 23.872 35.291 24.256 34.427 25.024C33.587 25.768 33.071 26.812 32.879 28.156H42.347ZM49.9497 29.956C49.9497 27.94 50.3457 26.152 51.1377 24.592C51.9537 23.032 53.0457 21.832 54.4137 20.992C55.8057 20.152 57.3537 19.732 59.0577 19.732C60.5457 19.732 61.8417 20.032 62.9457 20.632C64.0737 21.232 64.9737 21.988 65.6457 22.9V20.056H70.7217V40H65.6457V37.084C64.9977 38.02 64.0977 38.8 62.9457 39.424C61.8177 40.024 60.5097 40.324 59.0217 40.324C57.3417 40.324 55.8057 39.892 54.4137 39.028C53.0457 38.164 51.9537 36.952 51.1377 35.392C50.3457 33.808 49.9497 31.996 49.9497 29.956ZM65.6457 30.028C65.6457 28.804 65.4057 27.76 64.9257 26.896C64.4457 26.008 63.7977 25.336 62.9817 24.88C62.1657 24.4 61.2897 24.16 60.3537 24.16C59.4177 24.16 58.5537 24.388 57.7617 24.844C56.9697 25.3 56.3217 25.972 55.8177 26.86C55.3377 27.724 55.0977 28.756 55.0977 29.956C55.0977 31.156 55.3377 32.212 55.8177 33.124C56.3217 34.012 56.9697 34.696 57.7617 35.176C58.5777 35.656 59.4417 35.896 60.3537 35.896C61.2897 35.896 62.1657 35.668 62.9817 35.212C63.7977 34.732 64.4457 34.06 64.9257 33.196C65.4057 32.308 65.6457 31.252 65.6457 30.028ZM80.6842 23.152C81.3322 22.096 82.1722 21.268 83.2042 20.668C84.2602 20.068 85.4602 19.768 86.8042 19.768V25.06H85.4722C83.8882 25.06 82.6882 25.432 81.8722 26.176C81.0802 26.92 80.6842 28.216 80.6842 30.064V40H75.6442V20.056H80.6842V23.152ZM101.251 19.768C103.627 19.768 105.547 20.524 107.011 22.036C108.475 23.524 109.207 25.612 109.207 28.3V40H104.167V28.984C104.167 27.4 103.771 26.188 102.979 25.348C102.187 24.484 101.107 24.052 99.7388 24.052C98.3468 24.052 97.2428 24.484 96.4268 25.348C95.6348 26.188 95.2388 27.4 95.2388 28.984V40H90.1988V20.056H95.2388V22.54C95.9108 21.676 96.7628 21.004 97.7948 20.524C98.8508 20.02 100.003 19.768 101.251 19.768Z" fill="black"/>
</svg>
