<svg width="20" height="21" viewBox="0 0 20 21" fill="none" xmlns="http://www.w3.org/2000/svg">
<g clip-path="url(#clip0_1017_45465)">
<path d="M2.80482 20.5005H17.1953C19.0651 20.5005 20 19.9346 20 18.8028C20 18.1097 19.7711 17.3705 19.3132 16.5853C18.8553 15.8002 18.1932 15.0593 17.3269 14.3625C16.4607 13.6658 15.4112 13.0982 14.1786 12.6596C12.946 12.221 11.5551 12.0017 10.0058 12.0017C8.4488 12.0017 7.05402 12.221 5.82142 12.6596C4.58883 13.0982 3.53941 13.6658 2.67316 14.3625C1.80691 15.0593 1.14483 15.8002 0.686894 16.5853C0.228965 17.3705 0 18.1097 0 18.8028C0 19.9346 0.93494 20.5005 2.80482 20.5005ZM2.26675 18.8983C2.1141 18.8983 2.00535 18.8771 1.94047 18.8347C1.8756 18.7922 1.84317 18.7144 1.84317 18.6013C1.84317 18.1698 2.02062 17.6694 2.37551 17.0999C2.7304 16.5305 3.25511 15.9806 3.94964 15.4501C4.64416 14.9195 5.49896 14.4792 6.51404 14.1291C7.52912 13.7789 8.69302 13.6039 10.0058 13.6039C11.3184 13.6039 12.4804 13.7789 13.4918 14.1291C14.503 14.4792 15.3559 14.9195 16.0504 15.4501C16.745 15.9806 17.2697 16.5305 17.6246 17.0999C17.9795 17.6694 18.1569 18.1698 18.1569 18.6013C18.1569 18.7144 18.1245 18.7922 18.0596 18.8347C17.9947 18.8771 17.8898 18.8983 17.7447 18.8983H2.26675ZM10.0058 10.6861C10.914 10.6861 11.7421 10.4598 12.49 10.0071C13.2379 9.55439 13.8352 8.95138 14.2816 8.19807C14.7281 7.44475 14.9514 6.61186 14.9514 5.6994C14.9514 4.794 14.7301 3.97526 14.2874 3.24315C13.8447 2.51106 13.2494 1.92928 12.5015 1.4978C11.7535 1.06632 10.9216 0.850586 10.0058 0.850586C9.09753 0.850586 8.26944 1.06986 7.52149 1.50841C6.77353 1.94696 6.17632 2.53405 5.72984 3.26969C5.28336 4.00531 5.06012 4.82229 5.06012 5.72061C5.06012 6.62601 5.28336 7.45536 5.72984 8.20868C6.17632 8.962 6.77353 9.56323 7.52149 10.0124C8.26944 10.4615 9.09753 10.6861 10.0058 10.6861ZM10.0058 9.08401C9.44861 9.08401 8.93535 8.9337 8.46597 8.63308C7.99659 8.33246 7.61879 7.92751 7.33259 7.41823C7.04638 6.90894 6.90328 6.34307 6.90328 5.72061C6.90328 5.10523 7.04448 4.55174 7.32687 4.06014C7.60926 3.56854 7.98514 3.17773 8.45451 2.88773C8.92389 2.59772 9.44097 2.45271 10.0058 2.45271C10.5782 2.45271 11.0991 2.59418 11.5684 2.87711C12.0379 3.16004 12.4118 3.54731 12.6904 4.03892C12.9689 4.53052 13.1082 5.08401 13.1082 5.6994C13.1082 6.32185 12.967 6.88949 12.6846 7.40231C12.4023 7.91513 12.0264 8.32362 11.557 8.62778C11.0876 8.93193 10.5705 9.08401 10.0058 9.08401Z" fill="#8390A0"/>
</g>
<defs>
<clipPath id="clip0_1017_45465">
<rect width="20" height="20" fill="white" transform="translate(0 0.5)"/>
</clipPath>
</defs>
</svg>
