<svg width="20" height="20" viewBox="0 0 20 20" fill="none" xmlns="http://www.w3.org/2000/svg">
<g clip-path="url(#clip0_1696_48772)">
<path d="M2.80482 20.0005H17.1953C19.0651 20.0005 20 19.4346 20 18.3028C20 17.6097 19.7711 16.8705 19.3132 16.0853C18.8553 15.3002 18.1932 14.5593 17.3269 13.8625C16.4607 13.1658 15.4112 12.5982 14.1786 12.1596C12.946 11.721 11.5551 11.5017 10.0058 11.5017C8.4488 11.5017 7.05402 11.721 5.82142 12.1596C4.58883 12.5982 3.53941 13.1658 2.67316 13.8625C1.80691 14.5593 1.14483 15.3002 0.686894 16.0853C0.228965 16.8705 0 17.6097 0 18.3028C0 19.4346 0.93494 20.0005 2.80482 20.0005ZM2.26675 18.3983C2.1141 18.3983 2.00535 18.3771 1.94047 18.3347C1.8756 18.2922 1.84317 18.2144 1.84317 18.1013C1.84317 17.6698 2.02062 17.1694 2.37551 16.5999C2.7304 16.0305 3.25511 15.4806 3.94964 14.9501C4.64416 14.4195 5.49896 13.9792 6.51404 13.6291C7.52912 13.2789 8.69302 13.1039 10.0058 13.1039C11.3184 13.1039 12.4804 13.2789 13.4918 13.6291C14.503 13.9792 15.3559 14.4195 16.0504 14.9501C16.745 15.4806 17.2697 16.0305 17.6246 16.5999C17.9795 17.1694 18.1569 17.6698 18.1569 18.1013C18.1569 18.2144 18.1245 18.2922 18.0596 18.3347C17.9947 18.3771 17.8898 18.3983 17.7447 18.3983H2.26675ZM10.0058 10.1861C10.914 10.1861 11.7421 9.95978 12.49 9.50709C13.2379 9.05439 13.8352 8.45138 14.2816 7.69807C14.7281 6.94475 14.9514 6.11186 14.9514 5.1994C14.9514 4.294 14.7301 3.47526 14.2874 2.74315C13.8447 2.01106 13.2494 1.42928 12.5015 0.997801C11.7535 0.566324 10.9216 0.350586 10.0058 0.350586C9.09753 0.350586 8.26944 0.569861 7.52149 1.00841C6.77353 1.44696 6.17632 2.03405 5.72984 2.76969C5.28336 3.50531 5.06012 4.32229 5.06012 5.22061C5.06012 6.12601 5.28336 6.95536 5.72984 7.70868C6.17632 8.462 6.77353 9.06323 7.52149 9.51239C8.26944 9.96155 9.09753 10.1861 10.0058 10.1861ZM10.0058 8.58401C9.44861 8.58401 8.93535 8.4337 8.46597 8.13308C7.99659 7.83246 7.61879 7.42751 7.33259 6.91823C7.04638 6.40894 6.90328 5.84307 6.90328 5.22061C6.90328 4.60523 7.04448 4.05174 7.32687 3.56014C7.60926 3.06854 7.98514 2.67773 8.45451 2.38773C8.92389 2.09772 9.44097 1.95271 10.0058 1.95271C10.5782 1.95271 11.0991 2.09418 11.5684 2.37711C12.0379 2.66004 12.4118 3.04731 12.6904 3.53892C12.9689 4.03052 13.1082 4.58401 13.1082 5.1994C13.1082 5.82185 12.967 6.38949 12.6846 6.90231C12.4023 7.41513 12.0264 7.82362 11.557 8.12778C11.0876 8.43193 10.5705 8.58401 10.0058 8.58401Z" fill="#3AA2E6"/>
</g>
<defs>
<clipPath id="clip0_1696_48772">
<rect width="20" height="20" fill="white"/>
</clipPath>
</defs>
</svg>
