<svg width="12" height="23" viewBox="0 0 12 23" fill="none" xmlns="http://www.w3.org/2000/svg">
<g clip-path="url(#clip0_2061_52374)">
<path d="M5.07755 22.9695C5.4047 22.9695 5.67443 22.8739 5.88673 22.6828C6.09903 22.4918 6.20518 22.2149 6.20518 21.8522V14.5071C6.20518 14.1832 6.34788 14.0213 6.63327 14.0213C6.91866 14.0213 7.06135 14.1832 7.06135 14.5071V21.8522C7.06135 22.2149 7.16924 22.4918 7.38503 22.6828C7.60081 22.8739 7.8688 22.9695 8.18899 22.9695C8.50918 22.9695 8.77717 22.8739 8.99295 22.6828C9.20873 22.4918 9.31663 22.2149 9.31663 21.8522V9.51313C9.31663 9.25405 9.43148 9.12451 9.66118 9.12451C9.88392 9.12451 9.99529 9.25405 9.99529 9.51313V14.6042C9.99529 14.928 10.0893 15.1806 10.2772 15.362C10.4651 15.5434 10.7053 15.6341 10.9977 15.6341C11.297 15.6341 11.5388 15.5434 11.7233 15.362C11.9078 15.1806 12 14.928 12 14.6042V9.57143C12 8.59338 11.8033 7.83555 11.41 7.29794C11.0168 6.76033 10.4304 6.38627 9.65074 6.17577C8.87114 5.96526 7.9036 5.86001 6.74812 5.86001H5.18196C4.84785 5.86001 4.57116 5.82924 4.35189 5.7677C4.13263 5.70617 3.88726 5.58472 3.6158 5.40336L2.33154 4.56781L2.0914 0.992398C2.07052 0.655584 1.95567 0.402973 1.74685 0.234567C1.53802 0.0661598 1.28396 -0.0115664 0.984646 0.00138797C0.678375 0.0208196 0.43301 0.127693 0.248551 0.322009C0.0640919 0.516324 -0.0176967 0.775411 0.0031854 1.09927L0.24333 4.61639C0.271173 5.00501 0.359922 5.32078 0.509577 5.56368C0.659233 5.80657 0.859355 6.01222 1.10994 6.18062L3.48006 7.77402C3.66104 7.8906 3.7846 8.025 3.85072 8.17722C3.91685 8.32943 3.94992 8.49945 3.94992 8.68729V21.8522C3.94992 22.2149 4.05781 22.4918 4.27359 22.6828C4.48936 22.8739 4.75735 22.9695 5.07755 22.9695ZM6.74812 4.92729C7.20057 4.92729 7.61125 4.82366 7.98017 4.61639C8.34908 4.40912 8.64317 4.13222 8.86244 3.78569C9.0817 3.43916 9.19133 3.06186 9.19133 2.65379C9.19133 2.23278 9.0817 1.85063 8.86244 1.50734C8.64317 1.16404 8.34908 0.888763 7.98017 0.681493C7.61125 0.474223 7.20057 0.370588 6.74812 0.370588C6.29567 0.370588 5.88499 0.474223 5.51607 0.681493C5.14716 0.888763 4.85306 1.16404 4.6338 1.50734C4.41454 1.85063 4.30491 2.23278 4.30491 2.65379C4.30491 3.07481 4.41454 3.45697 4.6338 3.80025C4.85306 4.14355 5.14716 4.41721 5.51607 4.62124C5.88499 4.82527 6.29567 4.92729 6.74812 4.92729Z" fill="black" fill-opacity="0.85"/>
</g>
<defs>
<clipPath id="clip0_2061_52374">
<rect width="12" height="23" fill="white"/>
</clipPath>
</defs>
</svg>
