<svg width="28" height="23" viewBox="0 0 28 23" fill="none" xmlns="http://www.w3.org/2000/svg">
<g clip-path="url(#clip0_2061_52355)">
<path d="M3.57981 22.2532H24.4202C25.6058 22.2532 26.4989 21.9517 27.0993 21.3488C27.6998 20.746 28 19.8416 28 18.6358V6.41807C28 5.22004 27.6998 4.31956 27.0993 3.71665C26.4989 3.11374 25.6058 2.81229 24.4202 2.81229H21.1596C20.8556 2.81229 20.6124 2.78895 20.4299 2.74227C20.2475 2.69559 20.086 2.61586 19.9455 2.50305C19.8048 2.39025 19.6471 2.2366 19.4723 2.04211L18.5602 0.991885C18.279 0.672926 17.9674 0.427872 17.6254 0.256723C17.2834 0.0855745 16.8197 0 16.2345 0H11.6857C11.1004 0 10.6387 0.0855745 10.3005 0.256723C9.96226 0.427872 9.64874 0.672926 9.35993 0.991885L8.44788 2.04211C8.19706 2.32995 7.96524 2.53028 7.75243 2.64308C7.53962 2.75589 7.20901 2.81229 6.76058 2.81229H3.57981C2.38653 2.81229 1.49158 3.11374 0.894951 3.71665C0.298317 4.31956 0 5.22004 0 6.41807V18.6358C0 19.8416 0.298317 20.746 0.894951 21.3488C1.49158 21.9517 2.38653 22.2532 3.57981 22.2532ZM3.6026 20.3745C3.04017 20.3745 2.60504 20.2208 2.29722 19.9135C1.98941 19.6062 1.83551 19.1492 1.83551 18.5424V6.5231C1.83551 5.9163 1.98941 5.45926 2.29722 5.15196C2.60504 4.84467 3.04017 4.69103 3.6026 4.69103H7.2166C7.73343 4.69103 8.14956 4.63074 8.46498 4.51015C8.78039 4.38958 9.08251 4.16592 9.37132 3.83918L10.2606 2.81229C10.5874 2.43887 10.8762 2.18993 11.127 2.06546C11.3778 1.94099 11.754 1.87875 12.2556 1.87875H15.6645C16.1661 1.87875 16.5423 1.94099 16.7932 2.06546C17.0439 2.18993 17.3328 2.43887 17.6596 2.81229L18.5489 3.83918C18.8377 4.16592 19.1398 4.38958 19.4551 4.51015C19.7706 4.63074 20.1867 4.69103 20.7036 4.69103H24.386C24.9484 4.69103 25.3854 4.84467 25.697 5.15196C26.0086 5.45926 26.1645 5.9163 26.1645 6.5231V18.5424C26.1645 19.1492 26.0086 19.6062 25.697 19.9135C25.3854 20.2208 24.9484 20.3745 24.386 20.3745H3.6026ZM14 18.6941C14.8588 18.6941 15.6645 18.5307 16.4169 18.204C17.1694 17.8773 17.8306 17.4222 18.4006 16.8387C18.9706 16.2553 19.4153 15.5785 19.7345 14.8083C20.0538 14.0381 20.2134 13.2057 20.2134 12.311C20.2134 11.1285 19.936 10.055 19.3811 9.09033C18.8263 8.12567 18.0776 7.35939 17.1351 6.79149C16.1927 6.22359 15.1477 5.93964 14 5.93964C13.1335 5.93964 12.3241 6.10301 11.5717 6.42975C10.8192 6.75649 10.1599 7.21159 9.59363 7.79505C9.0274 8.37851 8.58278 9.05533 8.25977 9.8255C7.93675 10.5957 7.77524 11.4242 7.77524 12.311C7.77524 13.2057 7.93675 14.0381 8.25977 14.8083C8.58278 15.5785 9.0274 16.2553 9.59363 16.8387C10.1599 17.4222 10.8192 17.8773 11.5717 18.204C12.3241 18.5307 13.1335 18.6941 14 18.6941ZM14 16.9204C13.1715 16.9204 12.4172 16.7143 11.7369 16.3019C11.0567 15.8896 10.5133 15.3353 10.1067 14.6391C9.70005 13.9428 9.49674 13.1668 9.49674 12.311C9.49674 11.4631 9.70005 10.691 10.1067 9.9947C10.5133 9.29843 11.0567 8.7422 11.7369 8.32599C12.4172 7.90979 13.1715 7.70169 14 7.70169C14.8284 7.70169 15.5828 7.90979 16.2631 8.32599C16.9433 8.7422 17.4848 9.29843 17.8876 9.9947C18.2904 10.691 18.4918 11.4631 18.4918 12.311C18.4918 13.1668 18.2904 13.9428 17.8876 14.6391C17.4848 15.3353 16.9433 15.8896 16.2631 16.3019C15.5828 16.7143 14.8284 16.9204 14 16.9204ZM20.6807 8.01676C20.6807 8.42907 20.8213 8.77526 21.1026 9.05532C21.3838 9.33539 21.722 9.47153 22.1172 9.46375C22.4973 9.46375 22.8279 9.32372 23.1091 9.04366C23.3903 8.7636 23.5309 8.4213 23.5309 8.01676C23.5309 7.62778 23.3903 7.28938 23.1091 7.00155C22.8279 6.7137 22.4973 6.56978 22.1172 6.56978C21.722 6.56978 21.3838 6.7137 21.1026 7.00155C20.8213 7.28938 20.6807 7.62778 20.6807 8.01676Z" fill="black" fill-opacity="0.85"/>
</g>
<defs>
<clipPath id="clip0_2061_52355">
<rect width="28" height="23" fill="white"/>
</clipPath>
</defs>
</svg>
