<svg width="20" height="21" viewBox="0 0 20 21" fill="none" xmlns="http://www.w3.org/2000/svg">
<path d="M0 8.5892C0 9.70425 0.211532 10.75 0.634597 11.7265C1.05766 12.7031 1.6445 13.563 2.39509 14.3064C3.14569 15.0497 4.014 15.6309 5.00001 16.0499C5.98602 16.4689 7.04198 16.6784 8.16788 16.6784C9.05494 16.6784 9.90106 16.5432 10.7062 16.2729C11.5114 16.0026 12.2484 15.6309 12.9171 15.1579L17.9529 20.1553C18.0758 20.2702 18.2105 20.3564 18.3572 20.4138C18.5039 20.4713 18.6592 20.5 18.823 20.5C19.055 20.5 19.2597 20.4476 19.4371 20.3428C19.6145 20.2381 19.7526 20.0945 19.8516 19.9121C19.9505 19.7296 20 19.5268 20 19.3038C20 19.1417 19.971 18.9896 19.913 18.8477C19.855 18.7058 19.7714 18.5808 19.6623 18.4727L14.6572 13.4853C15.1825 12.8095 15.5936 12.056 15.8905 11.2247C16.1873 10.3935 16.3357 9.51503 16.3357 8.5892C16.3357 7.47414 16.1242 6.42836 15.7012 5.45185C15.2781 4.47533 14.6913 3.61539 13.9407 2.87202C13.1901 2.12865 12.3218 1.54747 11.3357 1.12848C10.3497 0.709495 9.29377 0.5 8.16788 0.5C7.04198 0.5 5.98602 0.709495 5.00001 1.12848C4.014 1.54747 3.14569 2.12865 2.39509 2.87202C1.6445 3.61539 1.05766 4.47533 0.634597 5.45185C0.211532 6.42836 0 7.47414 0 8.5892ZM1.75026 8.5892C1.75026 7.71067 1.91573 6.8879 2.24667 6.12088C2.57762 5.35386 3.03822 4.67806 3.62846 4.0935C4.2187 3.50895 4.90107 3.05279 5.67555 2.72503C6.45003 2.39727 7.28081 2.2334 8.16788 2.2334C9.05494 2.2334 9.88572 2.39727 10.6602 2.72503C11.4347 3.05279 12.1153 3.50895 12.7021 4.0935C13.289 4.67806 13.7496 5.35386 14.084 6.12088C14.4183 6.8879 14.5855 7.71067 14.5855 8.5892C14.5855 9.46772 14.4183 10.2905 14.084 11.0575C13.7496 11.8245 13.289 12.4986 12.7021 13.0798C12.1153 13.661 11.4347 14.1172 10.6602 14.4483C9.88572 14.7794 9.05494 14.945 8.16788 14.945C7.28081 14.945 6.45003 14.7794 5.67555 14.4483C4.90107 14.1172 4.2187 13.661 3.62846 13.0798C3.03822 12.4986 2.57762 11.8245 2.24667 11.0575C1.91573 10.2905 1.75026 9.46772 1.75026 8.5892Z" fill="#8390A0"/>
</svg>
