<svg width="20" height="20" viewBox="0 0 20 20" fill="none" xmlns="http://www.w3.org/2000/svg">
<path d="M0 8.0892C0 9.20425 0.211532 10.25 0.634597 11.2265C1.05766 12.2031 1.6445 13.063 2.39509 13.8064C3.14569 14.5497 4.014 15.1309 5.00001 15.5499C5.98602 15.9689 7.04198 16.1784 8.16788 16.1784C9.05494 16.1784 9.90106 16.0432 10.7062 15.7729C11.5114 15.5026 12.2484 15.1309 12.9171 14.6579L17.9529 19.6553C18.0758 19.7702 18.2105 19.8564 18.3572 19.9138C18.5039 19.9713 18.6592 20 18.823 20C19.055 20 19.2597 19.9476 19.4371 19.8428C19.6145 19.7381 19.7526 19.5945 19.8516 19.4121C19.9505 19.2296 20 19.0268 20 18.8038C20 18.6417 19.971 18.4896 19.913 18.3477C19.855 18.2058 19.7714 18.0808 19.6623 17.9727L14.6572 12.9853C15.1825 12.3095 15.5936 11.556 15.8905 10.7247C16.1873 9.89354 16.3357 9.01503 16.3357 8.0892C16.3357 6.97414 16.1242 5.92836 15.7012 4.95185C15.2781 3.97533 14.6913 3.11539 13.9407 2.37202C13.1901 1.62865 12.3218 1.04747 11.3357 0.628484C10.3497 0.209495 9.29377 0 8.16788 0C7.04198 0 5.98602 0.209495 5.00001 0.628484C4.014 1.04747 3.14569 1.62865 2.39509 2.37202C1.6445 3.11539 1.05766 3.97533 0.634597 4.95185C0.211532 5.92836 0 6.97414 0 8.0892ZM1.75026 8.0892C1.75026 7.21067 1.91573 6.3879 2.24667 5.62088C2.57762 4.85386 3.03822 4.17806 3.62846 3.5935C4.2187 3.00895 4.90107 2.55279 5.67555 2.22503C6.45003 1.89727 7.28081 1.7334 8.16788 1.7334C9.05494 1.7334 9.88572 1.89727 10.6602 2.22503C11.4347 2.55279 12.1153 3.00895 12.7021 3.5935C13.289 4.17806 13.7496 4.85386 14.084 5.62088C14.4183 6.3879 14.5855 7.21067 14.5855 8.0892C14.5855 8.96772 14.4183 9.79049 14.084 10.5575C13.7496 11.3245 13.289 11.9986 12.7021 12.5798C12.1153 13.161 11.4347 13.6172 10.6602 13.9483C9.88572 14.2794 9.05494 14.445 8.16788 14.445C7.28081 14.445 6.45003 14.2794 5.67555 13.9483C4.90107 13.6172 4.2187 13.161 3.62846 12.5798C3.03822 11.9986 2.57762 11.3245 2.24667 10.5575C1.91573 9.79049 1.75026 8.96772 1.75026 8.0892Z" fill="#3AA2E6"/>
</svg>
