<svg width="24" height="23" viewBox="0 0 24 23" fill="none" xmlns="http://www.w3.org/2000/svg">
<g clip-path="url(#clip0_2061_52333)">
<path d="M2.31544 19.0842H21.6746C22.3994 19.0842 22.9682 18.8581 23.381 18.4058C23.7937 17.9536 24 17.3303 24 16.5361V3.30964C24 2.51539 23.7937 1.89397 23.381 1.44537C22.9682 0.996763 22.3994 0.772461 21.6746 0.772461H2.31544C1.59732 0.772461 1.03188 0.996763 0.619129 1.44537C0.206376 1.89397 0 2.51539 0 3.30964V16.5361C0 17.3303 0.206376 17.9536 0.619129 18.4058C1.03188 18.8581 1.59732 19.0842 2.31544 19.0842ZM2.34564 17.3083C2.12416 17.3083 1.94799 17.2365 1.81712 17.0931C1.68625 16.9497 1.62081 16.7566 1.62081 16.5139V3.34272C1.62081 3.09268 1.68625 2.8978 1.81712 2.75808C1.94799 2.61835 2.12416 2.54848 2.34564 2.54848H21.6545C21.8759 2.54848 22.0521 2.61835 22.183 2.75808C22.3138 2.8978 22.3793 3.09268 22.3793 3.34272V16.5139C22.3793 16.7566 22.3138 16.9497 22.183 17.0931C22.0521 17.2365 21.8759 17.3083 21.6545 17.3083H2.34564ZM8.81881 21.7097H15.1813V18.9409H8.81881V21.7097ZM8.7584 23.0003H15.2417C15.4631 23.0003 15.6527 22.9139 15.8104 22.741C15.9681 22.5682 16.047 22.3568 16.047 22.1068C16.047 21.8568 15.9681 21.6453 15.8104 21.4725C15.6527 21.2997 15.4631 21.2133 15.2417 21.2133H8.7584C8.53693 21.2133 8.34566 21.2997 8.18458 21.4725C8.02351 21.6453 7.94297 21.8568 7.94297 22.1068C7.94297 22.3568 8.02351 22.5682 8.18458 22.741C8.34566 22.9139 8.53693 23.0003 8.7584 23.0003Z" fill="black" fill-opacity="0.85"/>
</g>
<defs>
<clipPath id="clip0_2061_52333">
<rect width="24" height="23" fill="white"/>
</clipPath>
</defs>
</svg>
